<svg id="Layer_1" data-name="Layer 1" xmlns="http://www.w3.org/2000/svg" viewBox="0 0 518.8 542.29"><defs><style>.cls-1,.cls-2{font-size:28px;}.cls-1,.cls-2,.cls-3{fill:#8797cb;}.cls-1{font-family:Kefa-Regular, Kefa;}.cls-2{font-family:Kefa-Bold, Kefa;font-weight:700;}.cls-3{font-size:39px;font-family:kawoszeh;letter-spacing:0.06em;}</style></defs><title>circle</title><text class="cls-1" transform="translate(105.32 119.92) rotate(-40.92)">H</text><text class="cls-1" transform="matrix(0.81, -0.59, 0.59, 0.81, 122.4, 105.39)">e</text><text class="cls-1" transform="matrix(0.84, -0.54, 0.54, 0.84, 135.45, 96.02)">l</text><text class="cls-1" transform="translate(144.13 90.45) rotate(-30.38)">l</text><text class="cls-1" transform="translate(152.97 85.22) rotate(-27.02)">o</text><text class="cls-1" transform="translate(167.98 77.75) rotate(-23.79)"> </text><text class="cls-2" transform="translate(176.23 73.84) rotate(-19.41)">w</text><text class="cls-2" transform="translate(200.75 65.51) rotate(-14.05)">o</text><text class="cls-2" transform="matrix(0.98, -0.17, 0.17, 0.98, 217.43, 61.45)">r</text><text class="cls-2" transform="translate(231.95 58.98) rotate(-6.89)">l</text><text class="cls-2" transform="translate(242.79 57.63) rotate(-3.32)">d</text><text class="cls-2" transform="matrix(1, -0.02, 0.02, 1, 260.72, 56.82)"> </text><text class="cls-1" transform="translate(269.63 56.6) rotate(3.79)">H</text><text class="cls-1" transform="matrix(0.99, 0.15, -0.15, 0.99, 291.99, 58.3)">e</text><text class="cls-1" transform="translate(307.84 60.82) rotate(11.81)">l</text><text class="cls-1" transform="translate(317.94 62.98) rotate(14.39)">l</text><text class="cls-1" transform="translate(327.87 65.48) rotate(17.76)">o</text><text class="cls-1" transform="matrix(0.93, 0.36, -0.36, 0.93, 343.79, 70.76)"> </text><text class="cls-2" transform="translate(352.41 73.8) rotate(25.38)">w</text><text class="cls-2" transform="matrix(0.86, 0.51, -0.51, 0.86, 375.68, 85.17)">o</text><text class="cls-2" transform="translate(390.38 94.02) rotate(34.66)">r</text><text class="cls-2" transform="translate(402.45 102.5) rotate(37.83)">l</text><text class="cls-2" transform="matrix(0.75, 0.66, -0.66, 0.75, 411.09, 109.15)">d</text><text class="cls-2" transform="matrix(0.71, 0.7, -0.7, 0.71, 424.48, 121.21)"> </text><text class="cls-1" transform="matrix(0.66, 0.75, -0.75, 0.66, 430.88, 127.32)">H</text><text class="cls-1" transform="translate(445.56 144.26) rotate(53.29)">e</text><text class="cls-1" transform="matrix(0.55, 0.83, -0.83, 0.55, 455.05, 157.22)">l</text><text class="cls-1" transform="matrix(0.51, 0.86, -0.86, 0.51, 460.7, 165.85)">l</text><text class="cls-1" transform="translate(466.01 174.65) rotate(62.46)">o</text><text class="cls-1" transform="translate(473.61 189.59) rotate(65.69)"> </text><text class="cls-2" transform="translate(477.59 197.79) rotate(70.07)">w</text><text class="cls-2" transform="translate(486.15 222.25) rotate(75.43)">o</text><text class="cls-2" transform="matrix(0.18, 0.98, -0.98, 0.18, 490.35, 238.87)">r</text><text class="cls-2" transform="matrix(0.13, 0.99, -0.99, 0.13, 492.96, 253.38)">l</text><text class="cls-2" transform="translate(494.41 264.22) rotate(86.17)">d</text><text class="cls-2" transform="matrix(0.02, 1, -1, 0.02, 495.41, 282.24)"> </text><text class="cls-1" transform="matrix(-0.06, 1, -1, -0.06, 495.68, 291.03)">H</text><text class="cls-1" transform="translate(494.18 313.41) rotate(98.01)">e</text><text class="cls-1" transform="matrix(-0.2, 0.98, -0.98, -0.2, 491.81, 329.28)">l</text><text class="cls-1" transform="matrix(-0.24, 0.97, -0.97, -0.24, 489.74, 339.39)">l</text><text class="cls-1" transform="matrix(-0.3, 0.96, -0.96, -0.3, 487.32, 349.36)">o</text><text class="cls-1" transform="matrix(-0.35, 0.94, -0.94, -0.35, 482.19, 365.34)"> </text><text class="cls-2" transform="matrix(-0.42, 0.91, -0.91, -0.42, 479.24, 373.95)">w</text><text class="cls-2" transform="translate(468.07 397.36) rotate(120.2)">o</text><text class="cls-2" transform="matrix(-0.56, 0.83, -0.83, -0.56, 459.35, 412.12)">r</text><text class="cls-2" transform="matrix(-0.61, 0.8, -0.8, -0.61, 450.98, 424.27)">l</text><text class="cls-2" transform="matrix(-0.65, 0.76, -0.76, -0.65, 444.4, 432.97)">d</text><text class="cls-2" transform="translate(432.47 446.47) rotate(134.19)"> </text><text class="cls-1" transform="translate(426.42 452.93) rotate(138.05)">H</text><text class="cls-1" transform="translate(409.6 467.76) rotate(142.78)">e</text><text class="cls-1" transform="translate(396.74 477.36) rotate(146.03)">l</text><text class="cls-1" transform="translate(388.16 483.08) rotate(148.58)">l</text><text class="cls-1" transform="translate(379.41 488.47) rotate(151.94)">o</text><text class="cls-1" transform="translate(364.54 496.21) rotate(155.17)"> </text><text class="cls-2" transform="translate(356.36 500.27) rotate(159.55)">w</text><text class="cls-2" transform="matrix(-0.97, 0.26, -0.26, -0.97, 332, 509.04)">o</text><text class="cls-2" transform="translate(315.42 513.4) rotate(168.88)">r</text><text class="cls-2" transform="translate(300.93 516.13) rotate(172.08)">l</text><text class="cls-2" transform="translate(290.11 517.69) rotate(175.65)">d</text><text class="cls-2" transform="translate(272.12 518.87) rotate(178.95)"> </text><text class="cls-1" transform="matrix(-1, -0.05, 0.05, -1, 263.29, 519.19)">H</text><text class="cls-1" transform="matrix(-0.99, -0.13, 0.13, -0.99, 240.89, 517.9)">e</text><text class="cls-1" transform="matrix(-0.98, -0.19, 0.19, -0.98, 225, 515.66)">l</text><text class="cls-1" transform="translate(214.88 513.69) rotate(-166.65)">l</text><text class="cls-1" transform="matrix(-0.96, -0.29, 0.29, -0.96, 204.88, 511.36)">o</text><text class="cls-1" transform="translate(188.88 506.38) rotate(-160.04)"> </text><text class="cls-2" transform="translate(180.21 503.49) rotate(-155.65)">w</text><text class="cls-2" transform="matrix(-0.87, -0.5, 0.5, -0.87, 156.73, 492.55)">o</text><text class="cls-2" transform="translate(141.88 483.96) rotate(-146.37)">r</text><text class="cls-2" transform="matrix(-0.8, -0.6, 0.6, -0.8, 129.66, 475.7)">l</text><text class="cls-2" transform="matrix(-0.76, -0.65, 0.65, -0.76, 120.89, 469.2)">d</text><text class="cls-2" transform="matrix(-0.72, -0.69, 0.69, -0.72, 107.3, 457.4)"> </text><text class="cls-1" transform="matrix(-0.68, -0.74, 0.74, -0.68, 100.78, 451.39)">H</text><text class="cls-1" transform="matrix(-0.61, -0.79, 0.79, -0.61, 85.8, 434.72)">e</text><text class="cls-1" transform="matrix(-0.57, -0.82, 0.82, -0.57, 76.09, 421.94)">l</text><text class="cls-1" transform="matrix(-0.53, -0.85, 0.85, -0.53, 70.28, 413.4)">l</text><text class="cls-1" transform="matrix(-0.48, -0.88, 0.88, -0.48, 64.83, 404.72)">o</text><text class="cls-1" transform="translate(56.94 389.91) rotate(-115.35)"> </text><text class="cls-2" transform="translate(52.82 381.78) rotate(-110.98)">w</text><text class="cls-2" transform="matrix(-0.27, -0.96, 0.96, -0.27, 43.81, 357.47)">o</text><text class="cls-2" transform="translate(39.31 340.93) rotate(-101.64)">r</text><text class="cls-2" transform="translate(36.44 326.47) rotate(-98.44)">l</text><text class="cls-2" transform="matrix(-0.08, -1, 1, -0.08, 34.79, 315.68)">d</text><text class="cls-2" transform="translate(33.45 297.71) rotate(-91.56)"> </text><text class="cls-1" transform="matrix(0.04, -1, 1, 0.04, 33.05, 288.87)">H</text><text class="cls-1" transform="matrix(0.12, -0.99, 0.99, 0.12, 34.14, 266.47)">e</text><text class="cls-1" transform="matrix(0.18, -0.98, 0.98, 0.18, 36.24, 250.54)">l</text><text class="cls-1" transform="translate(38.11 240.41) rotate(-77.18)">l</text><text class="cls-1" transform="matrix(0.28, -0.96, 0.96, 0.28, 40.36, 230.4)">o</text><text class="cls-1" transform="translate(45.19 214.34) rotate(-70.56)"> </text><text class="cls-1" transform="translate(48.32 205.62) rotate(-68.24)"> </text><text class="cls-2" transform="translate(51.46 197.06) rotate(-63.87)">w</text><text class="cls-2" transform="matrix(0.52, -0.85, 0.85, 0.52, 63.14, 173.93)">o</text><text class="cls-2" transform="matrix(0.58, -0.82, 0.82, 0.58, 72.18, 159.36)">r</text><text class="cls-2" transform="translate(80.81 147.41) rotate(-51.43)">l</text><text class="cls-2" transform="translate(87.58 138.83) rotate(-47.87)">d</text><text class="cls-2" transform="matrix(0.71, -0.7, 0.7, 0.71, 99.81, 125.6)"> </text><text class="cls-3" transform="translate(0 32.37)"> </text></svg>